<svg width="327" height="162" viewBox="0 0 327 162" fill="none" xmlns="http://www.w3.org/2000/svg">
<rect width="327" height="162" rx="12" fill="white"/>
<path d="M37 125H249.785L308 37" stroke="#518D70" stroke-opacity="0.67" stroke-width="5"/>
<g filter="url(#filter0_d_779_3245)">
<path d="M73.2656 46.9062C73.2656 47.9844 73.1172 48.9609 72.8203 49.8359C72.5234 50.7109 72.1094 51.4844 71.5781 52.1562C71.0625 52.8281 70.4375 53.4062 69.7031 53.8906C68.9844 54.375 68.1875 54.7734 67.3125 55.0859C66.4375 55.3984 65.5 55.6328 64.5 55.7891C63.5156 55.9297 62.4141 56 61.1953 56H53.1328C52.6172 56 52.1797 55.8516 51.8203 55.5547C51.4766 55.2422 51.3047 54.7422 51.3047 54.0547V27.6172C51.3047 26.9297 51.4766 26.4375 51.8203 26.1406C52.1797 25.8281 52.6172 25.6719 53.1328 25.6719H60.75C62.6094 25.6719 64.1797 25.8281 65.4609 26.1406C66.7578 26.4531 67.8438 26.9297 68.7188 27.5703C69.6094 28.1953 70.2891 28.9922 70.7578 29.9609C71.2266 30.9297 71.4609 32.0703 71.4609 33.3828C71.4609 34.1172 71.3672 34.8125 71.1797 35.4688C70.9922 36.1094 70.7188 36.6953 70.3594 37.2266C70 37.7578 69.5547 38.2266 69.0234 38.6328C68.5078 39.0391 67.9141 39.3672 67.2422 39.6172C68.1016 39.7734 68.8906 40.0469 69.6094 40.4375C70.3438 40.8281 70.9766 41.3359 71.5078 41.9609C72.0547 42.5703 72.4844 43.2891 72.7969 44.1172C73.1094 44.9453 73.2656 45.875 73.2656 46.9062ZM65.2969 34.1328C65.2969 33.5234 65.2031 32.9766 65.0156 32.4922C64.8281 32.0078 64.5469 31.6094 64.1719 31.2969C63.7969 30.9688 63.3203 30.7188 62.7422 30.5469C62.1797 30.375 61.4219 30.2891 60.4688 30.2891H57.3516V38.1641H60.7969C61.6875 38.1641 62.3984 38.0625 62.9297 37.8594C63.4609 37.6406 63.8984 37.3516 64.2422 36.9922C64.6016 36.6172 64.8672 36.1875 65.0391 35.7031C65.2109 35.2031 65.2969 34.6797 65.2969 34.1328ZM66.8672 47.1172C66.8672 46.4141 66.75 45.7891 66.5156 45.2422C66.2812 44.6797 65.9375 44.2109 65.4844 43.8359C65.0312 43.4609 64.4531 43.1719 63.75 42.9688C63.0469 42.7656 62.1328 42.6641 61.0078 42.6641H57.3516V51.2891H61.8047C62.6641 51.2891 63.3828 51.2031 63.9609 51.0312C64.5547 50.8438 65.0625 50.5781 65.4844 50.2344C65.9219 49.875 66.2578 49.4375 66.4922 48.9219C66.7422 48.3906 66.8672 47.7891 66.8672 47.1172ZM97.1719 44.1406C97.1719 44.8594 97.0078 45.3906 96.6797 45.7344C96.3672 46.0781 95.9297 46.25 95.3672 46.25H82.6406C82.6406 47.1406 82.7422 47.9531 82.9453 48.6875C83.1641 49.4062 83.5 50.0234 83.9531 50.5391C84.4219 51.0391 85.0156 51.4219 85.7344 51.6875C86.4688 51.9531 87.3438 52.0859 88.3594 52.0859C89.3906 52.0859 90.2969 52.0156 91.0781 51.875C91.8594 51.7188 92.5312 51.5547 93.0938 51.3828C93.6719 51.1953 94.1484 51.0312 94.5234 50.8906C94.8984 50.7344 95.2031 50.6562 95.4375 50.6562C95.5781 50.6562 95.6953 50.6875 95.7891 50.75C95.8828 50.7969 95.9609 50.8906 96.0234 51.0312C96.0859 51.1719 96.125 51.375 96.1406 51.6406C96.1719 51.8906 96.1875 52.2109 96.1875 52.6016C96.1875 52.9453 96.1797 53.2422 96.1641 53.4922C96.1484 53.7266 96.125 53.9297 96.0938 54.1016C96.0625 54.2734 96.0156 54.4219 95.9531 54.5469C95.8906 54.6562 95.8047 54.7656 95.6953 54.875C95.6016 54.9844 95.3281 55.1328 94.875 55.3203C94.4219 55.5078 93.8438 55.6953 93.1406 55.8828C92.4375 56.0547 91.6328 56.2031 90.7266 56.3281C89.8203 56.4688 88.8516 56.5391 87.8203 56.5391C85.9609 56.5391 84.3281 56.3047 82.9219 55.8359C81.5312 55.3672 80.3672 54.6562 79.4297 53.7031C78.4922 52.75 77.7891 51.5469 77.3203 50.0938C76.8672 48.6406 76.6406 46.9375 76.6406 44.9844C76.6406 43.125 76.8828 41.4531 77.3672 39.9688C77.8516 38.4688 78.5547 37.2031 79.4766 36.1719C80.3984 35.125 81.5156 34.3281 82.8281 33.7812C84.1562 33.2344 85.6484 32.9609 87.3047 32.9609C89.0547 32.9609 90.5469 33.2188 91.7812 33.7344C93.0312 34.25 94.0547 34.9688 94.8516 35.8906C95.6484 36.7969 96.2344 37.875 96.6094 39.125C96.9844 40.375 97.1719 41.7344 97.1719 43.2031V44.1406ZM91.4531 42.4531C91.5 40.7969 91.1641 39.5 90.4453 38.5625C89.7422 37.6094 88.6484 37.1328 87.1641 37.1328C86.4141 37.1328 85.7578 37.2734 85.1953 37.5547C84.6484 37.8359 84.1875 38.2188 83.8125 38.7031C83.4531 39.1719 83.1719 39.7344 82.9688 40.3906C82.7812 41.0312 82.6719 41.7188 82.6406 42.4531H91.4531ZM122.016 55.2031C122.016 55.3594 121.969 55.5 121.875 55.625C121.781 55.7344 121.625 55.8281 121.406 55.9062C121.188 55.9844 120.883 56.0391 120.492 56.0703C120.117 56.1172 119.648 56.1406 119.086 56.1406C118.508 56.1406 118.023 56.1172 117.633 56.0703C117.258 56.0391 116.961 55.9844 116.742 55.9062C116.523 55.8281 116.367 55.7344 116.273 55.625C116.18 55.5 116.133 55.3594 116.133 55.2031V43.2734C116.133 42.2578 116.055 41.4609 115.898 40.8828C115.758 40.3047 115.547 39.8125 115.266 39.4062C114.984 38.9844 114.617 38.6641 114.164 38.4453C113.727 38.2109 113.211 38.0938 112.617 38.0938C111.867 38.0938 111.109 38.3672 110.344 38.9141C109.578 39.4609 108.781 40.2578 107.953 41.3047V55.2031C107.953 55.3594 107.906 55.5 107.812 55.625C107.719 55.7344 107.555 55.8281 107.32 55.9062C107.102 55.9844 106.805 56.0391 106.43 56.0703C106.055 56.1172 105.578 56.1406 105 56.1406C104.422 56.1406 103.945 56.1172 103.57 56.0703C103.195 56.0391 102.891 55.9844 102.656 55.9062C102.438 55.8281 102.281 55.7344 102.188 55.625C102.094 55.5 102.047 55.3594 102.047 55.2031V34.2969C102.047 34.1406 102.086 34.0078 102.164 33.8984C102.242 33.7734 102.383 33.6719 102.586 33.5938C102.789 33.5156 103.047 33.4609 103.359 33.4297C103.688 33.3828 104.094 33.3594 104.578 33.3594C105.078 33.3594 105.492 33.3828 105.82 33.4297C106.148 33.4609 106.398 33.5156 106.57 33.5938C106.758 33.6719 106.891 33.7734 106.969 33.8984C107.047 34.0078 107.086 34.1406 107.086 34.2969V36.7109C108.242 35.4609 109.414 34.5234 110.602 33.8984C111.805 33.2734 113.055 32.9609 114.352 32.9609C115.773 32.9609 116.969 33.1953 117.938 33.6641C118.922 34.1328 119.711 34.7734 120.305 35.5859C120.914 36.3828 121.352 37.3203 121.617 38.3984C121.883 39.4766 122.016 40.7734 122.016 42.2891V55.2031ZM155.461 40.4844C155.461 43 155.148 45.25 154.523 47.2344C153.898 49.2188 152.969 50.9062 151.734 52.2969C150.5 53.6719 148.969 54.7266 147.141 55.4609C145.328 56.1797 143.227 56.5391 140.836 56.5391C138.477 56.5391 136.414 56.2344 134.648 55.625C132.898 55 131.438 54.0547 130.266 52.7891C129.094 51.5234 128.211 49.9141 127.617 47.9609C127.039 46.0078 126.75 43.6953 126.75 41.0234C126.75 38.5703 127.062 36.3672 127.688 34.4141C128.312 32.4453 129.242 30.7734 130.477 29.3984C131.711 28.0234 133.234 26.9688 135.047 26.2344C136.875 25.5 138.992 25.1328 141.398 25.1328C143.695 25.1328 145.719 25.4375 147.469 26.0469C149.234 26.6562 150.703 27.5938 151.875 28.8594C153.062 30.125 153.953 31.7266 154.547 33.6641C155.156 35.5859 155.461 37.8594 155.461 40.4844ZM148.992 40.8125C148.992 39.2188 148.867 37.7734 148.617 36.4766C148.367 35.1641 147.938 34.0469 147.328 33.125C146.734 32.1875 145.938 31.4688 144.938 30.9688C143.938 30.4531 142.688 30.1953 141.188 30.1953C139.672 30.1953 138.406 30.4844 137.391 31.0625C136.375 31.625 135.555 32.3828 134.93 33.3359C134.305 34.2891 133.859 35.4062 133.594 36.6875C133.344 37.9531 133.219 39.2969 133.219 40.7188C133.219 42.375 133.344 43.8672 133.594 45.1953C133.844 46.5078 134.266 47.6328 134.859 48.5703C135.453 49.5078 136.25 50.2266 137.25 50.7266C138.25 51.2109 139.508 51.4531 141.023 51.4531C142.539 51.4531 143.805 51.1719 144.82 50.6094C145.836 50.0469 146.656 49.2812 147.281 48.3125C147.906 47.3438 148.344 46.2188 148.594 44.9375C148.859 43.6406 148.992 42.2656 148.992 40.8125ZM181.359 44.4453C181.359 46.3047 181.156 47.9844 180.75 49.4844C180.359 50.9688 179.781 52.2344 179.016 53.2812C178.25 54.3281 177.297 55.1328 176.156 55.6953C175.016 56.2578 173.711 56.5391 172.242 56.5391C171.633 56.5391 171.07 56.4766 170.555 56.3516C170.055 56.2422 169.562 56.0703 169.078 55.8359C168.609 55.5859 168.141 55.2812 167.672 54.9219C167.203 54.5625 166.719 54.1406 166.219 53.6562V63.5C166.219 63.6562 166.172 63.7969 166.078 63.9219C165.984 64.0469 165.82 64.1484 165.586 64.2266C165.367 64.3203 165.07 64.3906 164.695 64.4375C164.32 64.4844 163.844 64.5078 163.266 64.5078C162.688 64.5078 162.211 64.4844 161.836 64.4375C161.461 64.3906 161.156 64.3203 160.922 64.2266C160.703 64.1484 160.547 64.0469 160.453 63.9219C160.359 63.7969 160.312 63.6562 160.312 63.5V34.2969C160.312 34.1406 160.352 34.0078 160.43 33.8984C160.508 33.7734 160.641 33.6719 160.828 33.5938C161.031 33.5156 161.289 33.4609 161.602 33.4297C161.93 33.3828 162.336 33.3594 162.82 33.3594C163.289 33.3594 163.68 33.3828 163.992 33.4297C164.32 33.4609 164.578 33.5156 164.766 33.5938C164.969 33.6719 165.109 33.7734 165.188 33.8984C165.266 34.0078 165.305 34.1406 165.305 34.2969V36.7578C165.914 36.1328 166.508 35.5859 167.086 35.1172C167.68 34.6328 168.281 34.2344 168.891 33.9219C169.5 33.5938 170.125 33.3516 170.766 33.1953C171.422 33.0391 172.117 32.9609 172.852 32.9609C174.383 32.9609 175.688 33.2656 176.766 33.875C177.844 34.4688 178.719 35.2891 179.391 36.3359C180.078 37.3828 180.578 38.6016 180.891 39.9922C181.203 41.3828 181.359 42.8672 181.359 44.4453ZM175.219 44.8672C175.219 43.9766 175.148 43.125 175.008 42.3125C174.883 41.4844 174.656 40.75 174.328 40.1094C174.016 39.4688 173.594 38.9609 173.062 38.5859C172.547 38.1953 171.898 38 171.117 38C170.727 38 170.336 38.0625 169.945 38.1875C169.57 38.2969 169.18 38.4844 168.773 38.75C168.383 39.0156 167.977 39.3594 167.555 39.7812C167.133 40.2031 166.688 40.7266 166.219 41.3516V48.2422C167.047 49.2891 167.836 50.1016 168.586 50.6797C169.336 51.2422 170.117 51.5234 170.93 51.5234C171.695 51.5234 172.344 51.3281 172.875 50.9375C173.422 50.5469 173.867 50.0391 174.211 49.4141C174.555 48.7734 174.805 48.0547 174.961 47.2578C175.133 46.4609 175.219 45.6641 175.219 44.8672ZM206.32 33.5C206.977 33.5 207.43 33.6406 207.68 33.9219C207.945 34.2031 208.078 34.6094 208.078 35.1406V55.2031C208.078 55.3594 208.031 55.5 207.938 55.625C207.844 55.7344 207.688 55.8281 207.469 55.9062C207.25 55.9844 206.945 56.0391 206.555 56.0703C206.18 56.1172 205.711 56.1406 205.148 56.1406C204.57 56.1406 204.086 56.1172 203.695 56.0703C203.32 56.0391 203.023 55.9844 202.805 55.9062C202.586 55.8281 202.43 55.7344 202.336 55.625C202.242 55.5 202.195 55.3594 202.195 55.2031V38.2812H192.797V48.1016C192.797 49.2422 192.977 50.1016 193.336 50.6797C193.695 51.2422 194.336 51.5234 195.258 51.5234C195.57 51.5234 195.852 51.5 196.102 51.4531C196.352 51.3906 196.57 51.3281 196.758 51.2656C196.961 51.1875 197.125 51.125 197.25 51.0781C197.391 51.0156 197.516 50.9844 197.625 50.9844C197.719 50.9844 197.805 51.0156 197.883 51.0781C197.977 51.125 198.047 51.2344 198.094 51.4062C198.141 51.5625 198.18 51.7812 198.211 52.0625C198.258 52.3438 198.281 52.7031 198.281 53.1406C198.281 53.8281 198.242 54.3516 198.164 54.7109C198.086 55.0547 197.977 55.3125 197.836 55.4844C197.695 55.6406 197.484 55.7812 197.203 55.9062C196.922 56.0156 196.594 56.1094 196.219 56.1875C195.859 56.2812 195.461 56.3516 195.023 56.3984C194.602 56.4453 194.172 56.4688 193.734 56.4688C192.562 56.4688 191.547 56.3203 190.688 56.0234C189.828 55.7266 189.117 55.2734 188.555 54.6641C187.992 54.0391 187.578 53.2578 187.312 52.3203C187.047 51.3828 186.914 50.2734 186.914 48.9922V38.2812H184.406C184.109 38.2812 183.883 38.1016 183.727 37.7422C183.57 37.3672 183.492 36.75 183.492 35.8906C183.492 35.4375 183.508 35.0547 183.539 34.7422C183.586 34.4297 183.648 34.1875 183.727 34.0156C183.805 33.8281 183.898 33.6953 184.008 33.6172C184.133 33.5391 184.273 33.5 184.43 33.5H186.914V28.8359C186.914 28.6797 186.953 28.5391 187.031 28.4141C187.125 28.2891 187.281 28.1875 187.5 28.1094C187.734 28.0156 188.039 27.9531 188.414 27.9219C188.805 27.875 189.281 27.8516 189.844 27.8516C190.422 27.8516 190.898 27.875 191.273 27.9219C191.664 27.9531 191.969 28.0156 192.188 28.1094C192.406 28.1875 192.562 28.2891 192.656 28.4141C192.75 28.5391 192.797 28.6797 192.797 28.8359V33.5H206.32ZM208.547 27.2188C208.547 28.4062 208.305 29.2266 207.82 29.6797C207.336 30.1328 206.438 30.3594 205.125 30.3594C203.797 30.3594 202.898 30.1406 202.43 29.7031C201.977 29.2656 201.75 28.4766 201.75 27.3359C201.75 26.1484 201.984 25.3281 202.453 24.875C202.938 24.4062 203.844 24.1719 205.172 24.1719C206.484 24.1719 207.375 24.3984 207.844 24.8516C208.312 25.2891 208.547 26.0781 208.547 27.2188ZM247.289 55.2031C247.289 55.3594 247.242 55.5 247.148 55.625C247.055 55.7344 246.898 55.8281 246.68 55.9062C246.461 55.9844 246.164 56.0391 245.789 56.0703C245.414 56.1172 244.938 56.1406 244.359 56.1406C243.766 56.1406 243.281 56.1172 242.906 56.0703C242.531 56.0391 242.227 55.9844 241.992 55.9062C241.773 55.8281 241.617 55.7344 241.523 55.625C241.445 55.5 241.406 55.3594 241.406 55.2031V42.8047C241.406 42.1016 241.336 41.4609 241.195 40.8828C241.07 40.3047 240.867 39.8125 240.586 39.4062C240.32 38.9844 239.977 38.6641 239.555 38.4453C239.148 38.2109 238.656 38.0938 238.078 38.0938C237.375 38.0938 236.664 38.3672 235.945 38.9141C235.227 39.4609 234.445 40.2578 233.602 41.3047V55.2031C233.602 55.3594 233.555 55.5 233.461 55.625C233.367 55.7344 233.203 55.8281 232.969 55.9062C232.75 55.9844 232.453 56.0391 232.078 56.0703C231.703 56.1172 231.234 56.1406 230.672 56.1406C230.094 56.1406 229.617 56.1172 229.242 56.0703C228.867 56.0391 228.562 55.9844 228.328 55.9062C228.109 55.8281 227.953 55.7344 227.859 55.625C227.766 55.5 227.719 55.3594 227.719 55.2031V42.8047C227.719 42.1016 227.648 41.4609 227.508 40.8828C227.383 40.3047 227.188 39.8125 226.922 39.4062C226.656 38.9844 226.312 38.6641 225.891 38.4453C225.469 38.2109 224.977 38.0938 224.414 38.0938C223.695 38.0938 222.977 38.3672 222.258 38.9141C221.539 39.4609 220.766 40.2578 219.938 41.3047V55.2031C219.938 55.3594 219.891 55.5 219.797 55.625C219.703 55.7344 219.539 55.8281 219.305 55.9062C219.086 55.9844 218.789 56.0391 218.414 56.0703C218.039 56.1172 217.562 56.1406 216.984 56.1406C216.406 56.1406 215.93 56.1172 215.555 56.0703C215.18 56.0391 214.875 55.9844 214.641 55.9062C214.422 55.8281 214.266 55.7344 214.172 55.625C214.078 55.5 214.031 55.3594 214.031 55.2031V34.2969C214.031 34.1406 214.07 34.0078 214.148 33.8984C214.227 33.7734 214.367 33.6719 214.57 33.5938C214.773 33.5156 215.031 33.4609 215.344 33.4297C215.672 33.3828 216.078 33.3594 216.562 33.3594C217.062 33.3594 217.477 33.3828 217.805 33.4297C218.133 33.4609 218.383 33.5156 218.555 33.5938C218.742 33.6719 218.875 33.7734 218.953 33.8984C219.031 34.0078 219.07 34.1406 219.07 34.2969V36.7109C220.227 35.4609 221.375 34.5234 222.516 33.8984C223.672 33.2734 224.875 32.9609 226.125 32.9609C226.984 32.9609 227.758 33.0547 228.445 33.2422C229.133 33.4141 229.742 33.6719 230.273 34.0156C230.82 34.3438 231.289 34.7422 231.68 35.2109C232.07 35.6797 232.398 36.2031 232.664 36.7812C233.289 36.1094 233.898 35.5312 234.492 35.0469C235.102 34.5625 235.695 34.1719 236.273 33.875C236.867 33.5625 237.453 33.3359 238.031 33.1953C238.625 33.0391 239.227 32.9609 239.836 32.9609C241.227 32.9609 242.398 33.1953 243.352 33.6641C244.305 34.1328 245.07 34.7734 245.648 35.5859C246.242 36.3828 246.664 37.3203 246.914 38.3984C247.164 39.4766 247.289 40.6172 247.289 41.8203V55.2031ZM83.2266 113.43C83.1328 113.805 83 114.109 82.8281 114.344C82.6719 114.562 82.4297 114.734 82.1016 114.859C81.7734 114.969 81.3516 115.039 80.8359 115.07C80.3203 115.117 79.6641 115.141 78.8672 115.141C77.9766 115.141 77.2578 115.117 76.7109 115.07C76.1797 115.039 75.7578 114.969 75.4453 114.859C75.1328 114.734 74.9062 114.562 74.7656 114.344C74.625 114.109 74.5156 113.805 74.4375 113.43L69.5859 94.2109H69.5391L64.9453 113.43C64.8672 113.789 64.7578 114.086 64.6172 114.32C64.4766 114.539 64.25 114.711 63.9375 114.836C63.6406 114.961 63.2266 115.039 62.6953 115.07C62.1797 115.117 61.4922 115.141 60.6328 115.141C59.7266 115.141 59 115.117 58.4531 115.07C57.9219 115.039 57.5 114.969 57.1875 114.859C56.875 114.734 56.6484 114.562 56.5078 114.344C56.3672 114.109 56.25 113.805 56.1562 113.43L49.2656 86.9688C49.125 86.4062 49.0469 85.9688 49.0312 85.6562C49.0156 85.3281 49.1016 85.0781 49.2891 84.9062C49.4922 84.7344 49.8125 84.6328 50.25 84.6016C50.7031 84.5547 51.3281 84.5312 52.125 84.5312C52.8594 84.5312 53.4375 84.5469 53.8594 84.5781C54.2969 84.5938 54.625 84.6484 54.8438 84.7422C55.0625 84.8203 55.2109 84.9453 55.2891 85.1172C55.3672 85.2734 55.4297 85.5 55.4766 85.7969L60.7969 109.023H60.8203L66.3516 85.9609C66.4141 85.6641 66.4922 85.4219 66.5859 85.2344C66.6953 85.0469 66.8672 84.9062 67.1016 84.8125C67.3516 84.7031 67.6875 84.6328 68.1094 84.6016C68.5312 84.5547 69.0938 84.5312 69.7969 84.5312C70.5469 84.5312 71.1406 84.5469 71.5781 84.5781C72.0312 84.6094 72.375 84.6797 72.6094 84.7891C72.8594 84.8828 73.0391 85.0234 73.1484 85.2109C73.2578 85.3984 73.3438 85.6484 73.4062 85.9609L79.125 109.023H79.1719L84.4922 85.8672C84.5391 85.6172 84.6016 85.4062 84.6797 85.2344C84.7578 85.0469 84.9062 84.9062 85.125 84.8125C85.3438 84.7031 85.6562 84.6328 86.0625 84.6016C86.4688 84.5547 87.0391 84.5312 87.7734 84.5312C88.4609 84.5312 88.9922 84.5547 89.3672 84.6016C89.7578 84.6328 90.0391 84.7344 90.2109 84.9062C90.3828 85.0781 90.4531 85.3359 90.4219 85.6797C90.4062 86.0078 90.3281 86.4609 90.1875 87.0391L83.2266 113.43ZM112.031 103.141C112.031 103.859 111.867 104.391 111.539 104.734C111.227 105.078 110.789 105.25 110.227 105.25H97.5C97.5 106.141 97.6016 106.953 97.8047 107.688C98.0234 108.406 98.3594 109.023 98.8125 109.539C99.2812 110.039 99.875 110.422 100.594 110.688C101.328 110.953 102.203 111.086 103.219 111.086C104.25 111.086 105.156 111.016 105.938 110.875C106.719 110.719 107.391 110.555 107.953 110.383C108.531 110.195 109.008 110.031 109.383 109.891C109.758 109.734 110.062 109.656 110.297 109.656C110.438 109.656 110.555 109.688 110.648 109.75C110.742 109.797 110.82 109.891 110.883 110.031C110.945 110.172 110.984 110.375 111 110.641C111.031 110.891 111.047 111.211 111.047 111.602C111.047 111.945 111.039 112.242 111.023 112.492C111.008 112.727 110.984 112.93 110.953 113.102C110.922 113.273 110.875 113.422 110.812 113.547C110.75 113.656 110.664 113.766 110.555 113.875C110.461 113.984 110.188 114.133 109.734 114.32C109.281 114.508 108.703 114.695 108 114.883C107.297 115.055 106.492 115.203 105.586 115.328C104.68 115.469 103.711 115.539 102.68 115.539C100.82 115.539 99.1875 115.305 97.7812 114.836C96.3906 114.367 95.2266 113.656 94.2891 112.703C93.3516 111.75 92.6484 110.547 92.1797 109.094C91.7266 107.641 91.5 105.938 91.5 103.984C91.5 102.125 91.7422 100.453 92.2266 98.9688C92.7109 97.4688 93.4141 96.2031 94.3359 95.1719C95.2578 94.125 96.375 93.3281 97.6875 92.7812C99.0156 92.2344 100.508 91.9609 102.164 91.9609C103.914 91.9609 105.406 92.2188 106.641 92.7344C107.891 93.25 108.914 93.9688 109.711 94.8906C110.508 95.7969 111.094 96.875 111.469 98.125C111.844 99.375 112.031 100.734 112.031 102.203V103.141ZM106.312 101.453C106.359 99.7969 106.023 98.5 105.305 97.5625C104.602 96.6094 103.508 96.1328 102.023 96.1328C101.273 96.1328 100.617 96.2734 100.055 96.5547C99.5078 96.8359 99.0469 97.2188 98.6719 97.7031C98.3125 98.1719 98.0312 98.7344 97.8281 99.3906C97.6406 100.031 97.5312 100.719 97.5 101.453H106.312ZM122.812 114.203C122.812 114.359 122.766 114.5 122.672 114.625C122.578 114.734 122.414 114.828 122.18 114.906C121.961 114.984 121.664 115.039 121.289 115.07C120.914 115.117 120.438 115.141 119.859 115.141C119.281 115.141 118.805 115.117 118.43 115.07C118.055 115.039 117.75 114.984 117.516 114.906C117.297 114.828 117.141 114.734 117.047 114.625C116.953 114.5 116.906 114.359 116.906 114.203V83.3828C116.906 83.2266 116.953 83.0859 117.047 82.9609C117.141 82.8359 117.297 82.7344 117.516 82.6562C117.75 82.5625 118.055 82.4922 118.43 82.4453C118.805 82.3984 119.281 82.375 119.859 82.375C120.438 82.375 120.914 82.3984 121.289 82.4453C121.664 82.4922 121.961 82.5625 122.18 82.6562C122.414 82.7344 122.578 82.8359 122.672 82.9609C122.766 83.0859 122.812 83.2266 122.812 83.3828V114.203ZM134.625 114.203C134.625 114.359 134.578 114.5 134.484 114.625C134.391 114.734 134.227 114.828 133.992 114.906C133.773 114.984 133.477 115.039 133.102 115.07C132.727 115.117 132.25 115.141 131.672 115.141C131.094 115.141 130.617 115.117 130.242 115.07C129.867 115.039 129.562 114.984 129.328 114.906C129.109 114.828 128.953 114.734 128.859 114.625C128.766 114.5 128.719 114.359 128.719 114.203V83.3828C128.719 83.2266 128.766 83.0859 128.859 82.9609C128.953 82.8359 129.109 82.7344 129.328 82.6562C129.562 82.5625 129.867 82.4922 130.242 82.4453C130.617 82.3984 131.094 82.375 131.672 82.375C132.25 82.375 132.727 82.3984 133.102 82.4453C133.477 82.4922 133.773 82.5625 133.992 82.6562C134.227 82.7344 134.391 82.8359 134.484 82.9609C134.578 83.0859 134.625 83.2266 134.625 83.3828V114.203ZM160.5 114.203C160.5 114.359 160.453 114.5 160.359 114.625C160.266 114.734 160.109 114.828 159.891 114.906C159.672 114.984 159.367 115.039 158.977 115.07C158.602 115.117 158.133 115.141 157.57 115.141C156.992 115.141 156.508 115.117 156.117 115.07C155.742 115.039 155.445 114.984 155.227 114.906C155.008 114.828 154.852 114.734 154.758 114.625C154.664 114.5 154.617 114.359 154.617 114.203V102.273C154.617 101.258 154.539 100.461 154.383 99.8828C154.242 99.3047 154.031 98.8125 153.75 98.4062C153.469 97.9844 153.102 97.6641 152.648 97.4453C152.211 97.2109 151.695 97.0938 151.102 97.0938C150.352 97.0938 149.594 97.3672 148.828 97.9141C148.062 98.4609 147.266 99.2578 146.438 100.305V114.203C146.438 114.359 146.391 114.5 146.297 114.625C146.203 114.734 146.039 114.828 145.805 114.906C145.586 114.984 145.289 115.039 144.914 115.07C144.539 115.117 144.062 115.141 143.484 115.141C142.906 115.141 142.43 115.117 142.055 115.07C141.68 115.039 141.375 114.984 141.141 114.906C140.922 114.828 140.766 114.734 140.672 114.625C140.578 114.5 140.531 114.359 140.531 114.203V93.2969C140.531 93.1406 140.57 93.0078 140.648 92.8984C140.727 92.7734 140.867 92.6719 141.07 92.5938C141.273 92.5156 141.531 92.4609 141.844 92.4297C142.172 92.3828 142.578 92.3594 143.062 92.3594C143.562 92.3594 143.977 92.3828 144.305 92.4297C144.633 92.4609 144.883 92.5156 145.055 92.5938C145.242 92.6719 145.375 92.7734 145.453 92.8984C145.531 93.0078 145.57 93.1406 145.57 93.2969V95.7109C146.727 94.4609 147.898 93.5234 149.086 92.8984C150.289 92.2734 151.539 91.9609 152.836 91.9609C154.258 91.9609 155.453 92.1953 156.422 92.6641C157.406 93.1328 158.195 93.7734 158.789 94.5859C159.398 95.3828 159.836 96.3203 160.102 97.3984C160.367 98.4766 160.5 99.7734 160.5 101.289V114.203ZM185.625 103.141C185.625 103.859 185.461 104.391 185.133 104.734C184.82 105.078 184.383 105.25 183.82 105.25H171.094C171.094 106.141 171.195 106.953 171.398 107.688C171.617 108.406 171.953 109.023 172.406 109.539C172.875 110.039 173.469 110.422 174.188 110.688C174.922 110.953 175.797 111.086 176.812 111.086C177.844 111.086 178.75 111.016 179.531 110.875C180.312 110.719 180.984 110.555 181.547 110.383C182.125 110.195 182.602 110.031 182.977 109.891C183.352 109.734 183.656 109.656 183.891 109.656C184.031 109.656 184.148 109.688 184.242 109.75C184.336 109.797 184.414 109.891 184.477 110.031C184.539 110.172 184.578 110.375 184.594 110.641C184.625 110.891 184.641 111.211 184.641 111.602C184.641 111.945 184.633 112.242 184.617 112.492C184.602 112.727 184.578 112.93 184.547 113.102C184.516 113.273 184.469 113.422 184.406 113.547C184.344 113.656 184.258 113.766 184.148 113.875C184.055 113.984 183.781 114.133 183.328 114.32C182.875 114.508 182.297 114.695 181.594 114.883C180.891 115.055 180.086 115.203 179.18 115.328C178.273 115.469 177.305 115.539 176.273 115.539C174.414 115.539 172.781 115.305 171.375 114.836C169.984 114.367 168.82 113.656 167.883 112.703C166.945 111.75 166.242 110.547 165.773 109.094C165.32 107.641 165.094 105.938 165.094 103.984C165.094 102.125 165.336 100.453 165.82 98.9688C166.305 97.4688 167.008 96.2031 167.93 95.1719C168.852 94.125 169.969 93.3281 171.281 92.7812C172.609 92.2344 174.102 91.9609 175.758 91.9609C177.508 91.9609 179 92.2188 180.234 92.7344C181.484 93.25 182.508 93.9688 183.305 94.8906C184.102 95.7969 184.688 96.875 185.062 98.125C185.438 99.375 185.625 100.734 185.625 102.203V103.141ZM179.906 101.453C179.953 99.7969 179.617 98.5 178.898 97.5625C178.195 96.6094 177.102 96.1328 175.617 96.1328C174.867 96.1328 174.211 96.2734 173.648 96.5547C173.102 96.8359 172.641 97.2188 172.266 97.7031C171.906 98.1719 171.625 98.7344 171.422 99.3906C171.234 100.031 171.125 100.719 171.094 101.453H179.906ZM205.219 108.297C205.219 109.484 204.992 110.531 204.539 111.438C204.102 112.344 203.477 113.102 202.664 113.711C201.852 114.32 200.891 114.773 199.781 115.07C198.672 115.383 197.469 115.539 196.172 115.539C195.391 115.539 194.641 115.477 193.922 115.352C193.219 115.242 192.586 115.102 192.023 114.93C191.461 114.742 190.992 114.555 190.617 114.367C190.242 114.18 189.969 114.008 189.797 113.852C189.625 113.68 189.492 113.422 189.398 113.078C189.305 112.719 189.258 112.195 189.258 111.508C189.258 111.055 189.273 110.695 189.305 110.43C189.336 110.148 189.383 109.93 189.445 109.773C189.508 109.602 189.586 109.492 189.68 109.445C189.773 109.383 189.891 109.352 190.031 109.352C190.203 109.352 190.453 109.453 190.781 109.656C191.125 109.844 191.547 110.055 192.047 110.289C192.547 110.523 193.125 110.742 193.781 110.945C194.453 111.148 195.211 111.25 196.055 111.25C196.586 111.25 197.055 111.195 197.461 111.086C197.883 110.977 198.242 110.82 198.539 110.617C198.852 110.414 199.086 110.156 199.242 109.844C199.398 109.531 199.477 109.172 199.477 108.766C199.477 108.297 199.328 107.898 199.031 107.57C198.75 107.227 198.367 106.93 197.883 106.68C197.414 106.43 196.875 106.195 196.266 105.977C195.672 105.758 195.055 105.516 194.414 105.25C193.789 104.984 193.172 104.68 192.562 104.336C191.969 103.992 191.43 103.57 190.945 103.07C190.477 102.57 190.094 101.969 189.797 101.266C189.516 100.562 189.375 99.7188 189.375 98.7344C189.375 97.7344 189.57 96.8203 189.961 95.9922C190.352 95.1484 190.914 94.4297 191.648 93.8359C192.383 93.2422 193.273 92.7812 194.32 92.4531C195.383 92.125 196.57 91.9609 197.883 91.9609C198.539 91.9609 199.172 92.0078 199.781 92.1016C200.406 92.1953 200.969 92.3125 201.469 92.4531C201.969 92.5938 202.391 92.75 202.734 92.9219C203.078 93.0781 203.32 93.2188 203.461 93.3438C203.617 93.4531 203.727 93.5703 203.789 93.6953C203.852 93.8047 203.898 93.9453 203.93 94.1172C203.961 94.2734 203.984 94.4766 204 94.7266C204.031 94.9609 204.047 95.2578 204.047 95.6172C204.047 96.0391 204.031 96.3828 204 96.6484C203.984 96.9141 203.945 97.125 203.883 97.2812C203.836 97.4375 203.766 97.5469 203.672 97.6094C203.578 97.6562 203.469 97.6797 203.344 97.6797C203.203 97.6797 202.984 97.6016 202.688 97.4453C202.391 97.2734 202.016 97.0938 201.562 96.9062C201.125 96.7188 200.609 96.5469 200.016 96.3906C199.438 96.2188 198.773 96.1328 198.023 96.1328C197.492 96.1328 197.031 96.1875 196.641 96.2969C196.25 96.4062 195.93 96.5625 195.68 96.7656C195.43 96.9688 195.242 97.2109 195.117 97.4922C194.992 97.7578 194.93 98.0469 194.93 98.3594C194.93 98.8438 195.078 99.25 195.375 99.5781C195.672 99.9062 196.062 100.195 196.547 100.445C197.031 100.695 197.578 100.93 198.188 101.148C198.812 101.367 199.438 101.609 200.062 101.875C200.703 102.125 201.328 102.422 201.938 102.766C202.562 103.109 203.117 103.531 203.602 104.031C204.086 104.531 204.477 105.133 204.773 105.836C205.07 106.523 205.219 107.344 205.219 108.297ZM224.391 108.297C224.391 109.484 224.164 110.531 223.711 111.438C223.273 112.344 222.648 113.102 221.836 113.711C221.023 114.32 220.062 114.773 218.953 115.07C217.844 115.383 216.641 115.539 215.344 115.539C214.562 115.539 213.812 115.477 213.094 115.352C212.391 115.242 211.758 115.102 211.195 114.93C210.633 114.742 210.164 114.555 209.789 114.367C209.414 114.18 209.141 114.008 208.969 113.852C208.797 113.68 208.664 113.422 208.57 113.078C208.477 112.719 208.43 112.195 208.43 111.508C208.43 111.055 208.445 110.695 208.477 110.43C208.508 110.148 208.555 109.93 208.617 109.773C208.68 109.602 208.758 109.492 208.852 109.445C208.945 109.383 209.062 109.352 209.203 109.352C209.375 109.352 209.625 109.453 209.953 109.656C210.297 109.844 210.719 110.055 211.219 110.289C211.719 110.523 212.297 110.742 212.953 110.945C213.625 111.148 214.383 111.25 215.227 111.25C215.758 111.25 216.227 111.195 216.633 111.086C217.055 110.977 217.414 110.82 217.711 110.617C218.023 110.414 218.258 110.156 218.414 109.844C218.57 109.531 218.648 109.172 218.648 108.766C218.648 108.297 218.5 107.898 218.203 107.57C217.922 107.227 217.539 106.93 217.055 106.68C216.586 106.43 216.047 106.195 215.438 105.977C214.844 105.758 214.227 105.516 213.586 105.25C212.961 104.984 212.344 104.68 211.734 104.336C211.141 103.992 210.602 103.57 210.117 103.07C209.648 102.57 209.266 101.969 208.969 101.266C208.688 100.562 208.547 99.7188 208.547 98.7344C208.547 97.7344 208.742 96.8203 209.133 95.9922C209.523 95.1484 210.086 94.4297 210.82 93.8359C211.555 93.2422 212.445 92.7812 213.492 92.4531C214.555 92.125 215.742 91.9609 217.055 91.9609C217.711 91.9609 218.344 92.0078 218.953 92.1016C219.578 92.1953 220.141 92.3125 220.641 92.4531C221.141 92.5938 221.562 92.75 221.906 92.9219C222.25 93.0781 222.492 93.2188 222.633 93.3438C222.789 93.4531 222.898 93.5703 222.961 93.6953C223.023 93.8047 223.07 93.9453 223.102 94.1172C223.133 94.2734 223.156 94.4766 223.172 94.7266C223.203 94.9609 223.219 95.2578 223.219 95.6172C223.219 96.0391 223.203 96.3828 223.172 96.6484C223.156 96.9141 223.117 97.125 223.055 97.2812C223.008 97.4375 222.938 97.5469 222.844 97.6094C222.75 97.6562 222.641 97.6797 222.516 97.6797C222.375 97.6797 222.156 97.6016 221.859 97.4453C221.562 97.2734 221.188 97.0938 220.734 96.9062C220.297 96.7188 219.781 96.5469 219.188 96.3906C218.609 96.2188 217.945 96.1328 217.195 96.1328C216.664 96.1328 216.203 96.1875 215.812 96.2969C215.422 96.4062 215.102 96.5625 214.852 96.7656C214.602 96.9688 214.414 97.2109 214.289 97.4922C214.164 97.7578 214.102 98.0469 214.102 98.3594C214.102 98.8438 214.25 99.25 214.547 99.5781C214.844 99.9062 215.234 100.195 215.719 100.445C216.203 100.695 216.75 100.93 217.359 101.148C217.984 101.367 218.609 101.609 219.234 101.875C219.875 102.125 220.5 102.422 221.109 102.766C221.734 103.109 222.289 103.531 222.773 104.031C223.258 104.531 223.648 105.133 223.945 105.836C224.242 106.523 224.391 107.344 224.391 108.297Z" fill="#2B1A51"/>
</g>
<defs>
<filter id="filter0_d_779_3245" x="45.0078" y="24.1719" width="206.281" height="99.3672" filterUnits="userSpaceOnUse" color-interpolation-filters="sRGB">
<feFlood flood-opacity="0" result="BackgroundImageFix"/>
<feColorMatrix in="SourceAlpha" type="matrix" values="0 0 0 0 0 0 0 0 0 0 0 0 0 0 0 0 0 0 127 0" result="hardAlpha"/>
<feOffset dy="4"/>
<feGaussianBlur stdDeviation="2"/>
<feComposite in2="hardAlpha" operator="out"/>
<feColorMatrix type="matrix" values="0 0 0 0 0 0 0 0 0 0 0 0 0 0 0 0 0 0 0.25 0"/>
<feBlend mode="normal" in2="BackgroundImageFix" result="effect1_dropShadow_779_3245"/>
<feBlend mode="normal" in="SourceGraphic" in2="effect1_dropShadow_779_3245" result="shape"/>
</filter>
</defs>
</svg>
